<svg aria-label="andOTP" viewBox="0 0 512 512" xmlns="http://www.w3.org/2000/svg">
    <rect fill="#fff" height="512" rx="15%" width="512"/>
    <defs>
        <filter id="a">
            <feGaussianBlur stdDeviation="3"/>
        </filter>
    </defs>
    <use fill="#666" filter="url(#a)" href="#b" transform="translate(2 2)"/>
    <g fill="#6abf69">
        <circle class="shadow" cx="256" cy="256" id="b" r="192"/>
    </g>
    <path d="M256 117a139 139 0 00-139 139 139 139 0 00139 139 139 139 0 00139-139 139 139 0 00-139-139zm0 38c45 0 85 30 97 73H159c12-43 52-73 97-73zm0 115a20 20 0 0120 20 20 20 0 01-12 18l16 36h-48l15-36a20 20 0 01-11-18 20 20 0 0120-20z"
          fill="#fc0"/>
</svg>
