<svg aria-label="Buffer" fill="#fff" viewBox="0 0 512 512" xmlns="http://www.w3.org/2000/svg"
     xmlns:xlink="http://www.w3.org/1999/xlink">
    <rect fill="#000" height="512" rx="15%" width="512"/>
    <path d="M84 166q-7.5-4.5 0-9l162-75q10-4.5 20 0l162 75q7.5 4.5 0 9l-162 75q-10 4.5-20 0z"/>
    <path d="M84 251q-7.5 5 0 10l162 75q10 3 20 0l162-75q7.5-5 0-10l-32-14q-10.5-4.5-21 0l-109 50q-10 4.5-20 0l-109-50q-10.5-4.5-21 0z"
          id="a"/>
    <use transform="translate(0 94)" xlink:href="#a"/>
</svg>
