<svg aria-label="CentOS" viewBox="0 0 512 512" xmlns="http://www.w3.org/2000/svg"
     xmlns:xlink="http://www.w3.org/1999/xlink">
    <rect fill="#fff" height="512" rx="15%" width="512"/>
    <g id="a">
        <rect fill="#9ccd2a" height="124" width="124" x="118" y="118"/>
        <rect fill="#932279" height="124" width="124" x="270" y="118"/>
        <rect fill="#efa724" height="124" width="124" x="270" y="270"/>
        <rect fill="#262577" height="124" width="124" x="118" y="270"/>
    </g>
    <use transform="rotate(225 256 256)" xlink:href="#a"/>
    <path d="M118 270h124v124H118zm152 0h124v124H270zm0-152h124v124H270zm-152 0h124v124H118zm245 226l-87-88 87-88 88 88zM256 236l-88-87 88-88 88 88zM149 344l-88-88 88-88 87 88zm107 107l-88-88 88-87 88 87z" fill="none" stroke="#fff"
          stroke-width="9"/>
</svg>
