<svg aria-label="Google Maps" viewBox="0 0 512 512" xmlns="http://www.w3.org/2000/svg">
    <rect fill="#fff" height="512" rx="15%" width="512"/>
    <clipPath id="a">
        <path
            d="M375 136a133 133 0 00-79-66 136 136 0 00-40-6 133 133 0 00-103 48 133 133 0 00-31 86c0 38 13 64 13 64 15 32 42 61 61 86a399 399 0 0130 45 222 222 0 0117 42c3 10 6 13 13 13s11-5 13-13a228 228 0 0116-41 472 472 0 0145-63c5-6 32-39 45-64 0 0 15-29 15-68 0-37-15-63-15-63z"/>
    </clipPath>
    <g clip-path="url(#a)" stroke-width="130">
        <path d="M104 379l152-181" stroke="#fbbc04"/>
        <path d="M256 198L378 53" stroke="#4285f4"/>
        <path d="M189 459l243-290" stroke="#34a853"/>
        <path d="M255 120l-79-67" stroke="#1a73e8"/>
        <path d="M76 232l91-109" stroke="#ea4335"/>
    </g>
    <circle cx="256" cy="198" fill="#fff" r="51"/>
</svg>
