<svg aria-label="taiga.io" viewBox="0 0 512 512" xmlns="http://www.w3.org/2000/svg">
    <rect fill="#fff" height="512" rx="15%" width="512"/>
    <path d="M393 119l-17 119L256 256l17-120z" fill="#a295ae" opacity=".8"/>
    <path d="M120 393l17-119 119-17-17 120z" fill="#5d6f6d" opacity=".8"/>
    <path d="M120 119l119 17 17 120-120-17z" fill="#8cd592" opacity=".8"/>
    <path d="M393 392l-119-17-17-120 120 17z" fill="#665e74" opacity=".8"/>
    <path d="M256 449l-72-96 72-96 72 96z" fill="#3c3647" opacity=".8"/>
    <path d="M450 255l-96 72-96-72 96-72z" fill="#837193" opacity=".8"/>
    <path d="M256 62l72 96-72 96-72-96z" fill="#a2f4ac" opacity=".8"/>
    <path d="M63 256l96-72 96 72-96 72z" fill="#7ea685" opacity=".8"/>
    <path d="M256 210l46 46-46 46-46-46z" fill="#3c3647"/>
</svg>
