<svg aria-label="TikTok" style="mix-blend-mode:multiply" viewBox="0 0 512 512" xmlns="http://www.w3.org/2000/svg">
    <rect fill="#fff" height="512" rx="15%" style="mix-blend-mode:multiply" width="512"/>
    <path d="m 219,200 a 117,117 0 1 0 100.6,115.4 v -128 a 150,150 0 0 0 88,28 v -63 a 88,88 0 0 1 -88,-88 H 256 V 316 a 53.5,53.5 0 1 1 -37,-51 z" fill="#ff004f"
          style="mix-blend-mode:multiply"
          transform="translate(18 15)"/>
    <path d="m 219,200 a 117,117 0 1 0 100.6,115.4 v -128 a 150,150 0 0 0 88,28 v -63 a 88,88 0 0 1 -88,-88 H 256 V 316 a 53.5,53.5 0 1 1 -37,-51 z" fill="#00f2ea"
          style="mix-blend-mode:multiply"/>
</svg>
